# xmcd
#
# Track frame offsets: 
#        150
#        18195
#        37585
#        53501
#        69835
#        87521
#        106809
#        123682
#        141366
#        158776
#        176841
#        194020
#
# Disc length: 2820 seconds
#
# Revision: 0
# Processed by: cddbd v1.5.2PL0 Copyright (c) Steve Scherf et al.
# Submitted via: ExactAudioCopy v0.99pb5
#
DISCID=9b0b020c
DTITLE=London Boys - London Nights
DYEAR=1995
DGENRE=Disco
TTITLE0=London Nights
TTITLE1=Requiem
TTITLE2=Sweet Soul Music
TTITLE3=Chapel Of Love
TTITLE4=Helpless
TTITLE5=Kimbaley (My Ma-Mama Say)
TTITLE6=Dreams Of Glory
TTITLE7=Oh Tracy
TTITLE8=Moonraker
TTITLE9=Walk On By
TTITLE10=Chinese Radio
TTITLE11=Love Train
EXTD=
EXTT0=
EXTT1=
EXTT2=
EXTT3=
EXTT4=
EXTT5=
EXTT6=
EXTT7=
EXTT8=
EXTT9=
EXTT10=
EXTT11=
PLAYORDER=
